<svg width="796" height="728" viewBox="0 0 796 728" fill="none" xmlns="http://www.w3.org/2000/svg">
<g opacity="0.05" clip-path="url(#clip0)">
<path d="M661.797 459.59C656.267 473.411 653.041 488.154 648.847 502.436C637.648 539.892 617.831 503.127 607.369 494.558C588.566 478.94 558.288 473.595 534.692 476.129C474.78 483.086 444.87 554.45 466.714 605.128C474.964 624.57 479.573 615.126 472.521 632.541C466.811 648.658 458.013 663.508 446.621 676.262C442.012 681.468 414.361 712.244 413.209 711.414C398.784 702.2 385.188 695.658 372.284 683.772C335.185 649.909 396.894 641.571 410.075 617.936C427.495 586.47 400.857 587.115 399.613 558.044C399.244 549.843 375.418 554.865 375.879 564.447C376.847 584.627 403.807 600.245 381.179 623.465C371.086 633.831 355.693 642.216 342.927 649.541C341.406 650.324 338.318 652.674 338.318 654.701C338.318 699.943 371.915 696.441 395.281 724.959C398.599 728.967 407.217 727.401 411.088 725.466C458.235 702.108 480.586 662.671 501.556 618.074C501.703 617.652 501.826 617.221 501.924 616.784C504.321 611.578 506.533 606.28 508.469 600.798C516.119 579.375 536.443 565.83 556.536 557.399C577.222 549.318 598.941 544.184 621.057 542.149H624.283C670.369 539.938 672.443 489.398 685.624 456.273C688.804 448.579 665.023 451.481 661.797 459.59ZM547.642 549.198C530.55 555.323 515.064 565.229 502.339 578.177C497.649 583.195 493.749 588.896 490.771 595.085C455.884 518.653 564.509 458.208 610.227 532.705C588.889 536.207 567.933 541.729 547.642 549.198Z" fill="url(#paint0_linear)"/>
<path d="M698.021 336.257C674.148 363.209 682.444 385.922 678.757 415.177C652.748 395.319 622.365 381.969 590.144 376.241C557.923 370.513 524.798 372.573 493.536 382.25C462.273 391.926 433.78 408.938 410.434 431.865C387.088 454.793 369.567 482.97 359.334 514.046C328.779 494.005 348.365 448.901 340.254 416.605C338.687 410.155 314.815 416.329 316.474 423.009C327.811 468.113 296.749 516.441 357.26 531.322C362.514 532.612 376.985 531.323 378.736 524.366C413.992 389.193 571.1 342.154 674.609 438.766C679.218 443.096 695.578 438.489 697.652 432.638C708.897 399.974 694.472 364.13 719.958 335.336C725.673 328.84 702.261 331.42 698.021 336.257Z" fill="url(#paint1_linear)"/>
<path d="M768.901 248.492C746.181 325.615 688.85 277.701 639.86 261.622C595.71 247.064 547.365 248.169 501.602 253.744C422.564 263.373 353.527 309.352 302.832 368.922C287.347 354.041 271.724 339.344 256.285 324.279C248.911 317.046 226.375 326.674 234.44 334.599C253.336 353.027 272.784 371.133 291.91 389.469C294.935 391.9 298.784 393.065 302.65 392.721C306.516 392.378 310.099 390.552 312.648 387.627C414.407 258.627 582.16 232.044 719.82 322.62C722.516 324.029 725.561 324.634 728.591 324.365C731.622 324.095 734.512 322.962 736.918 321.1C763.601 298.433 782.773 280.649 792.728 246.603C796.184 235.5 771.759 238.494 768.901 248.492Z" fill="url(#paint2_linear)"/>
<path d="M765.353 163.951C745.121 155.52 715.81 121.013 696.223 122.165C634.376 125.804 542.757 100.926 498.883 51.5378C494.597 46.9307 472.291 55.1314 476.531 59.9228C508.146 95.5357 585.202 126.864 631.196 134.696C656.405 138.981 674.379 126.403 693.412 143.588C719.128 166.946 757.426 172.474 768.579 202.328C580.132 107.929 366.293 134.834 223.057 296.452C195.083 274.153 174.482 268.118 137.567 276.779C123.419 280.097 125.769 288.389 139.825 285.164C173.376 277.286 190.198 295.162 210.844 313.222C215.453 317.23 229.279 312.485 232.781 308.338C372.975 138.105 586.769 118.663 772.68 224.35C777.658 227.253 795.724 224.35 795.724 217.025C796.737 188.093 790.424 174.363 765.353 163.951Z" fill="url(#paint3_linear)"/>
<path d="M214.347 154.553C292.693 82.175 390.119 80.8391 479.526 37.3019C480.364 37.0117 481.131 36.5484 481.778 35.9421C482.425 35.3359 482.936 34.6002 483.28 33.7831C483.623 32.9661 483.791 32.0858 483.771 31.1998C483.752 30.3137 483.546 29.4417 483.167 28.6405C476.761 16.2013 462.843 -36.2737 438.187 -16.7857C408.369 6.66455 406.48 18.0441 364.91 21.6837C350.854 23.0197 344.079 26.6594 332.419 32.9251C293.108 54.0256 297.256 -6.92643 291.633 -22.0378C290.066 -26.0459 285.826 -26.3685 282.139 -25.7235C253.336 -20.5635 178.123 -25.7236 177.939 13.7133C177.939 20.5779 190.797 30.944 194.299 34.9061C215.683 58.4945 192.548 64.7141 143.604 43.4293C122.543 34.215 99.1313 39.8818 78.2082 47.161C74.4291 48.5431 69.7283 52.1828 72.5396 56.3752C78.7151 66.2805 78.2082 64.8985 68.7144 78.0287C64.6589 83.6955 78.8534 113.181 82.2177 118.525C87.1489 150.452 76.7334 169.802 40.141 184.176C25.0248 190.028 4.37817 204.909 1.10606 221.909C-6.63642 262.59 27.3291 293.319 64.1058 284.842C65.7188 291.707 67.4241 298.663 69.2675 305.482C69.5549 306.47 70.1647 307.333 71 307.934C71.8352 308.535 72.8477 308.84 73.8761 308.799C74.8288 309.564 75.924 310.132 77.0981 310.47C78.2723 310.808 79.502 310.909 80.7156 310.767C81.9292 310.626 83.1026 310.244 84.1675 309.646C85.2324 309.047 86.1674 308.242 86.9185 307.279C122.449 250.959 165.299 199.602 214.347 154.553ZM82.0333 289.081C80.8351 284.473 79.6369 279.866 78.5769 275.259C77.5169 270.652 70.3275 271.758 67.2858 273.048C47.6531 278.761 33.182 273.416 23.6422 257.199C3.68688 232.275 24.0569 204.678 46.9618 192.7C55.4877 188.093 76.503 188.415 83.5542 178.878C99.9609 156.442 102.634 137.967 98.7166 115.577C98.7166 115.346 98.7166 115.116 98.7166 114.84C98.7166 113.78 98.1635 112.72 97.8409 111.661C96.827 106.04 95.3061 100.235 93.5549 93.9693C93.5549 93.6007 93.094 93.3243 93.0479 93.0018C90.5593 82.2673 90.2828 71.9473 98.1635 62.5488C98.6325 62.0296 98.9867 61.4176 99.2031 60.7523C99.4194 60.0871 99.4931 59.3837 99.4192 58.6881C99.3452 57.9925 99.1254 57.3204 98.774 56.7155C98.4227 56.1106 97.9477 55.5864 97.38 55.1773L95.7209 53.7032C167.016 29.7923 119.64 64.6681 160.748 67.9853C185.128 70.0585 199.83 64.7602 218.955 47.8982C220.753 46.2396 223.103 42.6922 220.753 40.3426C188.861 7.30958 213.425 10.903 241.952 -1.85866C318.962 -36.5041 249.234 38.1311 289.421 51.9063C323.571 63.5623 345.277 35.5511 380.764 32.3722C414.084 29.4237 415.236 31.589 436.067 6.29595C452.105 -13.3764 451.644 2.3338 460.631 19.7948C470.586 39.5132 442.197 37.3018 424.96 41.7247C367.583 56.4674 307.256 73.9744 257.207 106.639C186.465 152.572 128.212 218.361 82.0333 289.081Z" fill="url(#paint4_linear)"/>
</g>
<defs>
<linearGradient id="paint0_linear" x1="512.117" y1="451.781" x2="512.117" y2="727.459" gradientUnits="userSpaceOnUse">
<stop stop-color="#121214"/>
<stop offset="1" stop-color="#121214" stop-opacity="0"/>
</linearGradient>
<linearGradient id="paint1_linear" x1="518.621" y1="331.448" x2="518.621" y2="531.766" gradientUnits="userSpaceOnUse">
<stop stop-color="#121214"/>
<stop offset="1" stop-color="#121214" stop-opacity="0"/>
</linearGradient>
<linearGradient id="paint2_linear" x1="512.892" y1="239.53" x2="512.892" y2="392.781" gradientUnits="userSpaceOnUse">
<stop stop-color="#121214"/>
<stop offset="1" stop-color="#121214" stop-opacity="0"/>
</linearGradient>
<linearGradient id="paint3_linear" x1="461.937" y1="50.1793" x2="461.937" y2="314.738" gradientUnits="userSpaceOnUse">
<stop stop-color="#121214"/>
<stop offset="1" stop-color="#121214" stop-opacity="0"/>
</linearGradient>
<linearGradient id="paint4_linear" x1="241.884" y1="-25.9834" x2="241.884" y2="310.829" gradientUnits="userSpaceOnUse">
<stop stop-color="#121214"/>
<stop offset="1" stop-color="#121214" stop-opacity="0"/>
</linearGradient>
<clipPath id="clip0">
<rect width="796" height="754" fill="white" transform="translate(0 -26)"/>
</clipPath>
</defs>
</svg>
