<svg width="264" height="32" viewBox="0 0 264 32" fill="none" xmlns="http://www.w3.org/2000/svg">
<path d="M60.5977 20.0742L62.6133 11.3203H65.3906L61.9336 24H59.5898L56.8711 15.293L54.1992 24H51.8555L48.3867 11.3203H51.1641L53.2148 19.9805L55.8164 11.3203H57.9609L60.5977 20.0742ZM74.8711 24C74.7461 23.7578 74.6367 23.3633 74.543 22.8164C73.6367 23.7617 72.5273 24.2344 71.2148 24.2344C69.9414 24.2344 68.9023 23.8711 68.0977 23.1445C67.293 22.418 66.8906 21.5195 66.8906 20.4492C66.8906 19.0977 67.3906 18.0625 68.3906 17.3438C69.3984 16.6172 70.8359 16.2539 72.7031 16.2539H74.4492V15.4219C74.4492 14.7656 74.2656 14.2422 73.8984 13.8516C73.5312 13.4531 72.9727 13.2539 72.2227 13.2539C71.5742 13.2539 71.043 13.418 70.6289 13.7461C70.2148 14.0664 70.0078 14.4766 70.0078 14.9766H67.1602C67.1602 14.2812 67.3906 13.6328 67.8516 13.0312C68.3125 12.4219 68.9375 11.9453 69.7266 11.6016C70.5234 11.2578 71.4102 11.0859 72.3867 11.0859C73.8711 11.0859 75.0547 11.4609 75.9375 12.2109C76.8203 12.9531 77.2734 14 77.2969 15.3516V21.0703C77.2969 22.2109 77.457 23.1211 77.7773 23.8008V24H74.8711ZM71.7422 21.9492C72.3047 21.9492 72.832 21.8125 73.3242 21.5391C73.8242 21.2656 74.1992 20.8984 74.4492 20.4375V18.0469H72.9141C71.8594 18.0469 71.0664 18.2305 70.5352 18.5977C70.0039 18.9648 69.7383 19.4844 69.7383 20.1562C69.7383 20.7031 69.918 21.1406 70.2773 21.4688C70.6445 21.7891 71.1328 21.9492 71.7422 21.9492ZM86.918 13.9219C86.543 13.8594 86.1562 13.8281 85.7578 13.8281C84.4531 13.8281 83.5742 14.3281 83.1211 15.3281V24H80.2734V11.3203H82.9922L83.0625 12.7383C83.75 11.6367 84.7031 11.0859 85.9219 11.0859C86.3281 11.0859 86.6641 11.1406 86.9297 11.25L86.918 13.9219ZM94.0664 24.2344C92.2617 24.2344 90.7969 23.668 89.6719 22.5352C88.5547 21.3945 87.9961 19.8789 87.9961 17.9883V17.6367C87.9961 16.3711 88.2383 15.2422 88.7227 14.25C89.2148 13.25 89.9023 12.4727 90.7852 11.918C91.668 11.3633 92.6523 11.0859 93.7383 11.0859C95.4648 11.0859 96.7969 11.6367 97.7344 12.7383C98.6797 13.8398 99.1523 15.3984 99.1523 17.4141V18.5625H90.8672C90.9531 19.6094 91.3008 20.4375 91.9102 21.0469C92.5273 21.6562 93.3008 21.9609 94.2305 21.9609C95.5352 21.9609 96.5977 21.4336 97.418 20.3789L98.9531 21.8438C98.4453 22.6016 97.7656 23.1914 96.9141 23.6133C96.0703 24.0273 95.1211 24.2344 94.0664 24.2344ZM93.7266 13.3711C92.9453 13.3711 92.3125 13.6445 91.8281 14.1914C91.3516 14.7383 91.0469 15.5 90.9141 16.4766H96.3398V16.2656C96.2773 15.3125 96.0234 14.5938 95.5781 14.1094C95.1328 13.6172 94.5156 13.3711 93.7266 13.3711ZM104.18 12.7031C105.109 11.625 106.285 11.0859 107.707 11.0859C110.41 11.0859 111.781 12.6289 111.82 15.7148V24H108.973V15.8203C108.973 14.9453 108.781 14.3281 108.398 13.9688C108.023 13.6016 107.469 13.418 106.734 13.418C105.594 13.418 104.742 13.9258 104.18 14.9414V24H101.332V6H104.18V12.7031ZM114.176 17.543C114.176 16.3008 114.422 15.1836 114.914 14.1914C115.406 13.1914 116.098 12.4258 116.988 11.8945C117.879 11.3555 118.902 11.0859 120.059 11.0859C121.77 11.0859 123.156 11.6367 124.219 12.7383C125.289 13.8398 125.867 15.3008 125.953 17.1211L125.965 17.7891C125.965 19.0391 125.723 20.1562 125.238 21.1406C124.762 22.125 124.074 22.8867 123.176 23.4258C122.285 23.9648 121.254 24.2344 120.082 24.2344C118.293 24.2344 116.859 23.6406 115.781 22.4531C114.711 21.2578 114.176 19.668 114.176 17.6836V17.543ZM117.023 17.7891C117.023 19.0938 117.293 20.1172 117.832 20.8594C118.371 21.5938 119.121 21.9609 120.082 21.9609C121.043 21.9609 121.789 21.5859 122.32 20.8359C122.859 20.0859 123.129 18.9883 123.129 17.543C123.129 16.2617 122.852 15.2461 122.297 14.4961C121.75 13.7461 121.004 13.3711 120.059 13.3711C119.129 13.3711 118.391 13.7422 117.844 14.4844C117.297 15.2188 117.023 16.3203 117.023 17.7891ZM136.055 22.7578C135.219 23.7422 134.031 24.2344 132.492 24.2344C131.117 24.2344 130.074 23.832 129.363 23.0273C128.66 22.2227 128.309 21.0586 128.309 19.5352V11.3203H131.156V19.5C131.156 21.1094 131.824 21.9141 133.16 21.9141C134.543 21.9141 135.477 21.418 135.961 20.4258V11.3203H138.809V24H136.125L136.055 22.7578ZM148.816 20.5547C148.816 20.0469 148.605 19.6602 148.184 19.3945C147.77 19.1289 147.078 18.8945 146.109 18.6914C145.141 18.4883 144.332 18.2305 143.684 17.918C142.262 17.2305 141.551 16.2344 141.551 14.9297C141.551 13.8359 142.012 12.9219 142.934 12.1875C143.855 11.4531 145.027 11.0859 146.449 11.0859C147.965 11.0859 149.188 11.4609 150.117 12.2109C151.055 12.9609 151.523 13.9336 151.523 15.1289H148.676C148.676 14.582 148.473 14.1289 148.066 13.7695C147.66 13.4023 147.121 13.2188 146.449 13.2188C145.824 13.2188 145.312 13.3633 144.914 13.6523C144.523 13.9414 144.328 14.3281 144.328 14.8125C144.328 15.25 144.512 15.5898 144.879 15.832C145.246 16.0742 145.988 16.3203 147.105 16.5703C148.223 16.8125 149.098 17.1055 149.73 17.4492C150.371 17.7852 150.844 18.1914 151.148 18.668C151.461 19.1445 151.617 19.7227 151.617 20.4023C151.617 21.543 151.145 22.4688 150.199 23.1797C149.254 23.8828 148.016 24.2344 146.484 24.2344C145.445 24.2344 144.52 24.0469 143.707 23.6719C142.895 23.2969 142.262 22.7812 141.809 22.125C141.355 21.4688 141.129 20.7617 141.129 20.0039H143.895C143.934 20.6758 144.188 21.1953 144.656 21.5625C145.125 21.9219 145.746 22.1016 146.52 22.1016C147.27 22.1016 147.84 21.9609 148.23 21.6797C148.621 21.3906 148.816 21.0156 148.816 20.5547ZM159.691 24.2344C157.887 24.2344 156.422 23.668 155.297 22.5352C154.18 21.3945 153.621 19.8789 153.621 17.9883V17.6367C153.621 16.3711 153.863 15.2422 154.348 14.25C154.84 13.25 155.527 12.4727 156.41 11.918C157.293 11.3633 158.277 11.0859 159.363 11.0859C161.09 11.0859 162.422 11.6367 163.359 12.7383C164.305 13.8398 164.777 15.3984 164.777 17.4141V18.5625H156.492C156.578 19.6094 156.926 20.4375 157.535 21.0469C158.152 21.6562 158.926 21.9609 159.855 21.9609C161.16 21.9609 162.223 21.4336 163.043 20.3789L164.578 21.8438C164.07 22.6016 163.391 23.1914 162.539 23.6133C161.695 24.0273 160.746 24.2344 159.691 24.2344ZM159.352 13.3711C158.57 13.3711 157.938 13.6445 157.453 14.1914C156.977 14.7383 156.672 15.5 156.539 16.4766H161.965V16.2656C161.902 15.3125 161.648 14.5938 161.203 14.1094C160.758 13.6172 160.141 13.3711 159.352 13.3711Z" fill="#737380"/>
<path d="M176.32 26.2383H165.574V24H176.32V26.2383ZM183.41 24.2344C181.605 24.2344 180.141 23.668 179.016 22.5352C177.898 21.3945 177.34 19.8789 177.34 17.9883V17.6367C177.34 16.3711 177.582 15.2422 178.066 14.25C178.559 13.25 179.246 12.4727 180.129 11.918C181.012 11.3633 181.996 11.0859 183.082 11.0859C184.809 11.0859 186.141 11.6367 187.078 12.7383C188.023 13.8398 188.496 15.3984 188.496 17.4141V18.5625H180.211C180.297 19.6094 180.645 20.4375 181.254 21.0469C181.871 21.6562 182.645 21.9609 183.574 21.9609C184.879 21.9609 185.941 21.4336 186.762 20.3789L188.297 21.8438C187.789 22.6016 187.109 23.1914 186.258 23.6133C185.414 24.0273 184.465 24.2344 183.41 24.2344ZM183.07 13.3711C182.289 13.3711 181.656 13.6445 181.172 14.1914C180.695 14.7383 180.391 15.5 180.258 16.4766H185.684V16.2656C185.621 15.3125 185.367 14.5938 184.922 14.1094C184.477 13.6172 183.859 13.3711 183.07 13.3711ZM195.27 15.4922L197.684 11.3203H200.848L196.969 17.5664L200.977 24H197.836L195.305 19.6641L192.785 24H189.621L193.629 17.5664L189.762 11.3203H192.902L195.27 15.4922ZM213.891 17.7891C213.891 19.75 213.445 21.3164 212.555 22.4883C211.664 23.6523 210.469 24.2344 208.969 24.2344C207.578 24.2344 206.465 23.7773 205.629 22.8633V28.875H202.781V11.3203H205.406L205.523 12.6094C206.359 11.5938 207.496 11.0859 208.934 11.0859C210.48 11.0859 211.691 11.6641 212.566 12.8203C213.449 13.9688 213.891 15.5664 213.891 17.6133V17.7891ZM211.055 17.543C211.055 16.2773 210.801 15.2734 210.293 14.5312C209.793 13.7891 209.074 13.418 208.137 13.418C206.973 13.418 206.137 13.8984 205.629 14.8594V20.4844C206.145 21.4688 206.988 21.9609 208.16 21.9609C209.066 21.9609 209.773 21.5977 210.281 20.8711C210.797 20.1367 211.055 19.0273 211.055 17.543ZM219.34 24H216.492V6H219.34V24ZM221.918 17.543C221.918 16.3008 222.164 15.1836 222.656 14.1914C223.148 13.1914 223.84 12.4258 224.73 11.8945C225.621 11.3555 226.645 11.0859 227.801 11.0859C229.512 11.0859 230.898 11.6367 231.961 12.7383C233.031 13.8398 233.609 15.3008 233.695 17.1211L233.707 17.7891C233.707 19.0391 233.465 20.1562 232.98 21.1406C232.504 22.125 231.816 22.8867 230.918 23.4258C230.027 23.9648 228.996 24.2344 227.824 24.2344C226.035 24.2344 224.602 23.6406 223.523 22.4531C222.453 21.2578 221.918 19.668 221.918 17.6836V17.543ZM224.766 17.7891C224.766 19.0938 225.035 20.1172 225.574 20.8594C226.113 21.5938 226.863 21.9609 227.824 21.9609C228.785 21.9609 229.531 21.5859 230.062 20.8359C230.602 20.0859 230.871 18.9883 230.871 17.543C230.871 16.2617 230.594 15.2461 230.039 14.4961C229.492 13.7461 228.746 13.3711 227.801 13.3711C226.871 13.3711 226.133 13.7422 225.586 14.4844C225.039 15.2188 224.766 16.3203 224.766 17.7891ZM242.754 13.9219C242.379 13.8594 241.992 13.8281 241.594 13.8281C240.289 13.8281 239.41 14.3281 238.957 15.3281V24H236.109V11.3203H238.828L238.898 12.7383C239.586 11.6367 240.539 11.0859 241.758 11.0859C242.164 11.0859 242.5 11.1406 242.766 11.25L242.754 13.9219ZM249.902 24.2344C248.098 24.2344 246.633 23.668 245.508 22.5352C244.391 21.3945 243.832 19.8789 243.832 17.9883V17.6367C243.832 16.3711 244.074 15.2422 244.559 14.25C245.051 13.25 245.738 12.4727 246.621 11.918C247.504 11.3633 248.488 11.0859 249.574 11.0859C251.301 11.0859 252.633 11.6367 253.57 12.7383C254.516 13.8398 254.988 15.3984 254.988 17.4141V18.5625H246.703C246.789 19.6094 247.137 20.4375 247.746 21.0469C248.363 21.6562 249.137 21.9609 250.066 21.9609C251.371 21.9609 252.434 21.4336 253.254 20.3789L254.789 21.8438C254.281 22.6016 253.602 23.1914 252.75 23.6133C251.906 24.0273 250.957 24.2344 249.902 24.2344ZM249.562 13.3711C248.781 13.3711 248.148 13.6445 247.664 14.1914C247.188 14.7383 246.883 15.5 246.75 16.4766H252.176V16.2656C252.113 15.3125 251.859 14.5938 251.414 14.1094C250.969 13.6172 250.352 13.3711 249.562 13.3711ZM263.848 13.9219C263.473 13.8594 263.086 13.8281 262.688 13.8281C261.383 13.8281 260.504 14.3281 260.051 15.3281V24H257.203V11.3203H259.922L259.992 12.7383C260.68 11.6367 261.633 11.0859 262.852 11.0859C263.258 11.0859 263.594 11.1406 263.859 11.25L263.848 13.9219Z" fill="#A8A8B3"/>
<path fill-rule="evenodd" clip-rule="evenodd" d="M0 16C0 7.16002 7.16002 0 16 0C24.84 0 32 7.16002 31.9999 16C31.9999 24.832 24.8399 31.9999 16 31.9999C7.16002 31.9999 0 24.832 0 16ZM6.39997 25.6L19.504 19.504L25.6 6.39997L12.496 12.496L6.39997 25.6ZM17.76 16C17.76 16.968 16.9759 17.76 16 17.76C15.032 17.76 14.2399 16.968 14.2399 16C14.2399 15.0319 15.0319 14.2399 16 14.2399C16.976 14.2399 17.76 15.0319 17.76 16Z" fill="#121214"/>
</svg>
